<svg width="520" height="519" viewBox="0 0 520 519" fill="none" xmlns="http://www.w3.org/2000/svg">
<g filter="url(#filter0_di)">
<rect x="50" y="56" width="200" height="200" rx="5" fill="#02494C"/>
</g>
<g filter="url(#filter1_di)">
<rect x="260" y="265.491" width="225" height="225" rx="5" fill="#02767A"/>
</g>
<g filter="url(#filter2_di)">
<rect x="10" y="265" width="240" height="240" rx="5" fill="#159196"/>
</g>
<g filter="url(#filter3_d)">
<path d="M136.283 457.36C126.763 457.36 117.896 455.773 109.683 452.6C101.47 449.24 94.283 444.48 88.123 438.32C81.963 432.16 77.1096 424.693 73.563 415.92C70.203 406.96 68.523 396.787 68.523 385.4C68.523 374.2 70.2963 364.12 73.843 355.16C77.3896 346.2 82.0563 338.64 87.843 332.48C93.8163 326.32 100.63 321.56 108.283 318.2C115.936 314.84 123.776 313.16 131.803 313.16C141.136 313.16 149.35 314.747 156.443 317.92C163.536 321.093 169.416 325.573 174.083 331.36C178.936 337.147 182.576 344.053 185.003 352.08C187.43 360.107 188.643 368.88 188.643 378.4C188.643 381.573 188.456 384.56 188.083 387.36C187.896 390.16 187.616 392.4 187.243 394.08H99.883C101.376 406.4 105.67 415.92 112.763 422.64C120.043 429.173 129.283 432.44 140.483 432.44C146.456 432.44 151.963 431.6 157.003 429.92C162.23 428.053 167.363 425.533 172.403 422.36L183.323 442.52C176.79 446.813 169.51 450.36 161.483 453.16C153.456 455.96 145.056 457.36 136.283 457.36ZM99.603 372.24H160.643C160.643 361.6 158.31 353.293 153.643 347.32C149.163 341.16 142.163 338.08 132.643 338.08C124.43 338.08 117.243 340.973 111.083 346.76C104.923 352.547 101.096 361.04 99.603 372.24Z" fill="white"/>
</g>
<g filter="url(#filter4_di)">
<rect x="260" y="6" width="250" height="250" rx="5" fill="#1B5B5E"/>
</g>
<g filter="url(#filter5_d)">
<path d="M324.38 144.248C323.26 156.008 321.3 168.468 317.24 176.728C320.46 177.848 326.2 180.648 328.86 182.328C332.92 173.368 336 159.648 337.12 146.348L324.38 144.248ZM353.36 146.488C356.44 154.468 358.96 164.828 359.52 171.548L371.28 167.768C370.44 161.048 367.64 150.968 364.28 143.268L353.36 146.488ZM343.7 121.988C346.22 118.768 348.6 115.268 351.12 111.628C352.66 114.568 354.06 117.928 355.32 121.288L343.7 121.988ZM440.44 122.128C437.64 125.628 433.16 130.108 428.96 133.888C427.28 128.568 425.88 123.108 424.62 117.508H450.38V104.208H435.68V67.1076H378.14V79.5676H420V86.1476H380.94V97.7676H420V104.208H369.46V117.508H395.78C388.5 122.268 379.68 126.188 371 128.988C368.76 121.988 365.54 113.868 362.04 107.148L351.12 111.628C357.28 102.808 363.3 93.4276 368.48 84.8876L355.32 78.8676C352.1 85.7276 347.9 93.8476 343.28 101.688C342.02 99.8676 340.48 97.9076 338.8 95.9476C343.7 88.1076 349.44 77.0476 354.48 67.3876L340.34 62.4876C338.1 69.6276 334.18 79.1476 330.26 86.8476C329.14 85.7276 328.02 84.6076 326.9 83.6276L318.92 94.4076C324.66 100.428 331.52 108.268 335.16 114.708C333.34 117.508 331.38 120.308 329.56 122.828C325.5 122.968 321.86 123.248 318.5 123.388L320.18 137.808L338.66 136.408V193.108H352.66V135.288L359.8 134.728C360.64 137.668 361.2 140.328 361.62 142.708L373.24 137.668C372.82 135.428 372.26 132.908 371.42 130.108C373.94 132.908 377.44 137.528 378.84 140.048C383.32 138.228 387.94 136.128 392.56 133.608C393.54 134.588 394.66 135.568 395.64 136.688C388.08 142.288 377.16 147.888 368.62 150.688C371.56 153.348 375.06 158.388 377.02 161.468C385 157.828 394.8 151.808 402.36 145.788C403.06 147.188 403.76 148.588 404.32 149.988C395.08 160.348 378 171.128 363.58 175.888C366.52 178.688 370.3 183.588 372.4 187.088C384.02 181.908 397.46 173.088 407.54 163.848C407.82 170.148 406.42 175.048 404.32 177.148C402.92 179.528 400.68 179.948 398.02 179.948C395.08 179.948 392.7 179.808 389.34 179.248C392 183.588 392.56 189.048 392.7 192.968C395.5 193.108 398.3 193.248 401.1 193.248C406.56 192.968 410.2 191.988 414.12 188.488C424.76 179.948 427.84 148.028 403.34 126.888C406.42 124.648 409.36 122.408 412.02 120.028C417.2 146.628 425.88 170.148 441.28 183.448C443.52 179.388 448.42 173.648 451.92 170.988C444.36 165.248 438.34 156.428 433.72 146.068C438.76 142.708 444.64 138.228 450.8 133.888L440.44 122.128Z" fill="white"/>
</g>
<defs>
<filter id="filter0_di" x="40" y="50" width="220" height="220" filterUnits="userSpaceOnUse" color-interpolation-filters="sRGB">
<feFlood flood-opacity="0" result="BackgroundImageFix"/>
<feColorMatrix in="SourceAlpha" type="matrix" values="0 0 0 0 0 0 0 0 0 0 0 0 0 0 0 0 0 0 127 0"/>
<feOffset dy="4"/>
<feGaussianBlur stdDeviation="5"/>
<feColorMatrix type="matrix" values="0 0 0 0 0 0 0 0 0 0 0 0 0 0 0 0 0 0 0.25 0"/>
<feBlend mode="normal" in2="BackgroundImageFix" result="effect1_dropShadow"/>
<feBlend mode="normal" in="SourceGraphic" in2="effect1_dropShadow" result="shape"/>
<feColorMatrix in="SourceAlpha" type="matrix" values="0 0 0 0 0 0 0 0 0 0 0 0 0 0 0 0 0 0 127 0" result="hardAlpha"/>
<feOffset/>
<feGaussianBlur stdDeviation="75"/>
<feComposite in2="hardAlpha" operator="arithmetic" k2="-1" k3="1"/>
<feColorMatrix type="matrix" values="0 0 0 0 0 0 0 0 0 0 0 0 0 0 0 0 0 0 0.15 0"/>
<feBlend mode="normal" in2="shape" result="effect2_innerShadow"/>
</filter>
<filter id="filter1_di" x="250" y="259.491" width="245" height="245" filterUnits="userSpaceOnUse" color-interpolation-filters="sRGB">
<feFlood flood-opacity="0" result="BackgroundImageFix"/>
<feColorMatrix in="SourceAlpha" type="matrix" values="0 0 0 0 0 0 0 0 0 0 0 0 0 0 0 0 0 0 127 0"/>
<feOffset dy="4"/>
<feGaussianBlur stdDeviation="5"/>
<feColorMatrix type="matrix" values="0 0 0 0 0 0 0 0 0 0 0 0 0 0 0 0 0 0 0.25 0"/>
<feBlend mode="normal" in2="BackgroundImageFix" result="effect1_dropShadow"/>
<feBlend mode="normal" in="SourceGraphic" in2="effect1_dropShadow" result="shape"/>
<feColorMatrix in="SourceAlpha" type="matrix" values="0 0 0 0 0 0 0 0 0 0 0 0 0 0 0 0 0 0 127 0" result="hardAlpha"/>
<feOffset/>
<feGaussianBlur stdDeviation="75"/>
<feComposite in2="hardAlpha" operator="arithmetic" k2="-1" k3="1"/>
<feColorMatrix type="matrix" values="0 0 0 0 0 0 0 0 0 0 0 0 0 0 0 0 0 0 0.15 0"/>
<feBlend mode="normal" in2="shape" result="effect2_innerShadow"/>
</filter>
<filter id="filter2_di" x="0" y="259" width="260" height="260" filterUnits="userSpaceOnUse" color-interpolation-filters="sRGB">
<feFlood flood-opacity="0" result="BackgroundImageFix"/>
<feColorMatrix in="SourceAlpha" type="matrix" values="0 0 0 0 0 0 0 0 0 0 0 0 0 0 0 0 0 0 127 0"/>
<feOffset dy="4"/>
<feGaussianBlur stdDeviation="5"/>
<feColorMatrix type="matrix" values="0 0 0 0 0 0 0 0 0 0 0 0 0 0 0 0 0 0 0.25 0"/>
<feBlend mode="normal" in2="BackgroundImageFix" result="effect1_dropShadow"/>
<feBlend mode="normal" in="SourceGraphic" in2="effect1_dropShadow" result="shape"/>
<feColorMatrix in="SourceAlpha" type="matrix" values="0 0 0 0 0 0 0 0 0 0 0 0 0 0 0 0 0 0 127 0" result="hardAlpha"/>
<feOffset/>
<feGaussianBlur stdDeviation="75"/>
<feComposite in2="hardAlpha" operator="arithmetic" k2="-1" k3="1"/>
<feColorMatrix type="matrix" values="0 0 0 0 0 0 0 0 0 0 0 0 0 0 0 0 0 0 0.15 0"/>
<feBlend mode="normal" in2="shape" result="effect2_innerShadow"/>
</filter>
<filter id="filter3_d" x="62.523" y="307.16" width="132.12" height="156.2" filterUnits="userSpaceOnUse" color-interpolation-filters="sRGB">
<feFlood flood-opacity="0" result="BackgroundImageFix"/>
<feColorMatrix in="SourceAlpha" type="matrix" values="0 0 0 0 0 0 0 0 0 0 0 0 0 0 0 0 0 0 127 0"/>
<feOffset/>
<feGaussianBlur stdDeviation="3"/>
<feColorMatrix type="matrix" values="0 0 0 0 0.208333 0 0 0 0 0.208333 0 0 0 0 0.208333 0 0 0 0.8 0"/>
<feBlend mode="normal" in2="BackgroundImageFix" result="effect1_dropShadow"/>
<feBlend mode="normal" in="SourceGraphic" in2="effect1_dropShadow" result="shape"/>
</filter>
<filter id="filter4_di" x="250" y="0" width="270" height="270" filterUnits="userSpaceOnUse" color-interpolation-filters="sRGB">
<feFlood flood-opacity="0" result="BackgroundImageFix"/>
<feColorMatrix in="SourceAlpha" type="matrix" values="0 0 0 0 0 0 0 0 0 0 0 0 0 0 0 0 0 0 127 0"/>
<feOffset dy="4"/>
<feGaussianBlur stdDeviation="5"/>
<feColorMatrix type="matrix" values="0 0 0 0 0 0 0 0 0 0 0 0 0 0 0 0 0 0 0.25 0"/>
<feBlend mode="normal" in2="BackgroundImageFix" result="effect1_dropShadow"/>
<feBlend mode="normal" in="SourceGraphic" in2="effect1_dropShadow" result="shape"/>
<feColorMatrix in="SourceAlpha" type="matrix" values="0 0 0 0 0 0 0 0 0 0 0 0 0 0 0 0 0 0 127 0" result="hardAlpha"/>
<feOffset/>
<feGaussianBlur stdDeviation="75"/>
<feComposite in2="hardAlpha" operator="arithmetic" k2="-1" k3="1"/>
<feColorMatrix type="matrix" values="0 0 0 0 0 0 0 0 0 0 0 0 0 0 0 0 0 0 0.15 0"/>
<feBlend mode="normal" in2="shape" result="effect2_innerShadow"/>
</filter>
<filter id="filter5_d" x="311.24" y="56.4876" width="146.68" height="142.76" filterUnits="userSpaceOnUse" color-interpolation-filters="sRGB">
<feFlood flood-opacity="0" result="BackgroundImageFix"/>
<feColorMatrix in="SourceAlpha" type="matrix" values="0 0 0 0 0 0 0 0 0 0 0 0 0 0 0 0 0 0 127 0"/>
<feOffset/>
<feGaussianBlur stdDeviation="3"/>
<feColorMatrix type="matrix" values="0 0 0 0 0.208333 0 0 0 0 0.208333 0 0 0 0 0.208333 0 0 0 0.8 0"/>
<feBlend mode="normal" in2="BackgroundImageFix" result="effect1_dropShadow"/>
<feBlend mode="normal" in="SourceGraphic" in2="effect1_dropShadow" result="shape"/>
</filter>
</defs>
</svg>
