<svg width="850" height="850" viewBox="0 0 850 850" fill="none" xmlns="http://www.w3.org/2000/svg">
<g filter="url(#filter0_d)">
<path d="M788.51 570.358C787.555 566.466 787.805 562.383 789.143 558.606C803.944 516.825 812 471.853 812 425C812 204.086 632.914 25 412 25C191.086 25 12 204.086 12 425C12 645.914 191.086 825 412 825C494.977 825 572.053 799.734 635.954 756.477C639.819 753.86 644.444 752.578 649.096 752.951L837 768L788.51 570.358Z" fill="url(#paint0_linear)"/>
<path d="M788.51 570.358C787.555 566.466 787.805 562.383 789.143 558.606C803.944 516.825 812 471.853 812 425C812 204.086 632.914 25 412 25C191.086 25 12 204.086 12 425C12 645.914 191.086 825 412 825C494.977 825 572.053 799.734 635.954 756.477C639.819 753.86 644.444 752.578 649.096 752.951L837 768L788.51 570.358Z" stroke="#159196"/>
</g>
<path d="M263.768 796.635C116.24 737.739 12 593.543 12 425C12 224.337 159.758 58.1847 352.407 29.4089C482.134 138.258 520.267 325.908 437.074 478.584L263.768 796.635Z" fill="white" fill-opacity="0.25"/>
<g filter="url(#filter1_d)">
<path d="M789.143 558.606C787.805 562.383 787.555 566.466 788.51 570.358L837 768L649.096 752.951C644.444 752.578 639.819 753.86 635.954 756.477C572.053 799.734 494.977 825 412 825C359.629 825 309.609 814.935 263.768 796.635L437.074 478.584C520.267 325.908 482.134 138.258 352.407 29.4089C371.85 26.5049 391.749 25 412 25C632.914 25 812 204.086 812 425C812 471.853 803.944 516.825 789.143 558.606Z" fill="url(#paint1_linear)"/>
<path d="M789.143 558.606C787.805 562.383 787.555 566.466 788.51 570.358L837 768L649.096 752.951C644.444 752.578 639.819 753.86 635.954 756.477C572.053 799.734 494.977 825 412 825C359.629 825 309.609 814.935 263.768 796.635L437.074 478.584C520.267 325.908 482.134 138.258 352.407 29.4089C371.85 26.5049 391.749 25 412 25C632.914 25 812 204.086 812 425C812 471.853 803.944 516.825 789.143 558.606Z" stroke="#159196"/>
</g>
<g filter="url(#filter2_d)">
<path d="M331 196.5L321.5 254.5C381 264.5 474.5 275.5 527 279.5L535 221C483 217.5 387 207 331 196.5ZM552.5 355.5L516 314C510.5 316 497 318.5 487.5 319.5C446 325 332.5 330 309 330C290.5 330.5 272.5 329.5 261 328.5L267 397.5C277.5 396 292.5 393.5 310 392C338.5 389.5 398.5 384 433.5 383C388 431 285.5 533 260 559C246.5 572 234.5 582.5 225.5 590L284.5 631.5C319 587.5 356.5 546.5 373.5 529C385.5 517 396 509 406.5 509C416.5 509 427.5 515.5 433 533C436.5 545.5 442.5 569 447.5 584C460 616.5 485.5 627 533 627C559 627 610.5 623.5 631 619.5L635 554C610 559 575.5 563 537 563C517.5 563 506.5 555 502 539.5C497.5 526.5 492 507.5 487.5 494C481 475.5 472 464.5 457.5 460C452 458 443 456 438.5 456.5C450.5 443.5 497 400.5 520 381C529 373.5 539.5 364.5 552.5 355.5Z" fill="white"/>
</g>
<defs>
<filter id="filter0_d" x="5.5" y="19.5" width="838.151" height="813" filterUnits="userSpaceOnUse" color-interpolation-filters="sRGB">
<feFlood flood-opacity="0" result="BackgroundImageFix"/>
<feColorMatrix in="SourceAlpha" type="matrix" values="0 0 0 0 0 0 0 0 0 0 0 0 0 0 0 0 0 0 127 0"/>
<feOffset dy="1"/>
<feGaussianBlur stdDeviation="3"/>
<feColorMatrix type="matrix" values="0 0 0 0 0 0 0 0 0 0 0 0 0 0 0 0 0 0 0.25 0"/>
<feBlend mode="normal" in2="BackgroundImageFix" result="effect1_dropShadow"/>
<feBlend mode="normal" in="SourceGraphic" in2="effect1_dropShadow" result="shape"/>
</filter>
<filter id="filter1_d" x="258.059" y="22.5" width="580.592" height="807" filterUnits="userSpaceOnUse" color-interpolation-filters="sRGB">
<feFlood flood-opacity="0" result="BackgroundImageFix"/>
<feColorMatrix in="SourceAlpha" type="matrix" values="0 0 0 0 0 0 0 0 0 0 0 0 0 0 0 0 0 0 127 0"/>
<feOffset dx="-2" dy="1"/>
<feGaussianBlur stdDeviation="1.5"/>
<feColorMatrix type="matrix" values="0 0 0 0 0 0 0 0 0 0 0 0 0 0 0 0 0 0 0.1 0"/>
<feBlend mode="normal" in2="BackgroundImageFix" result="effect1_dropShadow"/>
<feBlend mode="normal" in="SourceGraphic" in2="effect1_dropShadow" result="shape"/>
</filter>
<filter id="filter2_d" x="222.5" y="193.5" width="415.5" height="441" filterUnits="userSpaceOnUse" color-interpolation-filters="sRGB">
<feFlood flood-opacity="0" result="BackgroundImageFix"/>
<feColorMatrix in="SourceAlpha" type="matrix" values="0 0 0 0 0 0 0 0 0 0 0 0 0 0 0 0 0 0 127 0"/>
<feOffset/>
<feGaussianBlur stdDeviation="1.5"/>
<feColorMatrix type="matrix" values="0 0 0 0 0.208333 0 0 0 0 0.208333 0 0 0 0 0.208333 0 0 0 0.6 0"/>
<feBlend mode="normal" in2="BackgroundImageFix" result="effect1_dropShadow"/>
<feBlend mode="normal" in="SourceGraphic" in2="effect1_dropShadow" result="shape"/>
</filter>
<linearGradient id="paint0_linear" x1="179.5" y1="98" x2="760.5" y2="701.5" gradientUnits="userSpaceOnUse">
<stop stop-color="#1CBEC5"/>
<stop offset="1" stop-color="#02767A"/>
</linearGradient>
<linearGradient id="paint1_linear" x1="179.5" y1="98" x2="760.5" y2="701.5" gradientUnits="userSpaceOnUse">
<stop stop-color="#1CBEC5"/>
<stop offset="1" stop-color="#02767A"/>
</linearGradient>
</defs>
</svg>
