<svg width="520" height="519" viewBox="0 0 520 519" fill="none" xmlns="http://www.w3.org/2000/svg">
<g filter="url(#filter0_di)">
<rect x="25" y="31" width="225" height="225" rx="5" fill="#02494C"/>
</g>
<g filter="url(#filter1_di)">
<rect x="260" y="265.491" width="235" height="235" rx="5" fill="#02767A"/>
</g>
<g filter="url(#filter2_di)">
<rect x="10" y="265" width="240" height="240" rx="5" fill="#159196"/>
</g>
<g filter="url(#filter3_d)">
<path d="M138.283 459.36C128.763 459.36 119.896 457.773 111.683 454.6C103.47 451.24 96.283 446.48 90.123 440.32C83.963 434.16 79.1096 426.693 75.563 417.92C72.203 408.96 70.523 398.787 70.523 387.4C70.523 376.2 72.2963 366.12 75.843 357.16C79.3896 348.2 84.0563 340.64 89.843 334.48C95.8163 328.32 102.63 323.56 110.283 320.2C117.936 316.84 125.776 315.16 133.803 315.16C143.136 315.16 151.35 316.747 158.443 319.92C165.536 323.093 171.416 327.573 176.083 333.36C180.936 339.147 184.576 346.053 187.003 354.08C189.43 362.107 190.643 370.88 190.643 380.4C190.643 383.573 190.456 386.56 190.083 389.36C189.896 392.16 189.616 394.4 189.243 396.08H101.883C103.376 408.4 107.67 417.92 114.763 424.64C122.043 431.173 131.283 434.44 142.483 434.44C148.456 434.44 153.963 433.6 159.003 431.92C164.23 430.053 169.363 427.533 174.403 424.36L185.323 444.52C178.79 448.813 171.51 452.36 163.483 455.16C155.456 457.96 147.056 459.36 138.283 459.36ZM101.603 374.24H162.643C162.643 363.6 160.31 355.293 155.643 349.32C151.163 343.16 144.163 340.08 134.643 340.08C126.43 340.08 119.243 342.973 113.083 348.76C106.923 354.547 103.096 363.04 101.603 374.24Z" fill="white"/>
</g>
<g filter="url(#filter4_di)">
<rect x="260" y="6" width="250" height="250" rx="5" fill="#1B5B5E"/>
</g>
<g filter="url(#filter5_d)">
<path d="M311.39 146.46C310.03 160.74 307.65 175.87 302.72 185.9C306.63 187.26 313.6 190.66 316.83 192.7C321.76 181.82 325.5 165.16 326.86 149.01L311.39 146.46ZM346.58 149.18C350.32 158.87 353.38 171.45 354.06 179.61L368.34 175.02C367.32 166.86 363.92 154.62 359.84 145.27L346.58 149.18ZM334.85 119.43C337.91 115.52 340.8 111.27 343.86 106.85C345.73 110.42 347.43 114.5 348.96 118.58L334.85 119.43ZM452.32 119.6C448.92 123.85 443.48 129.29 438.38 133.88C436.34 127.42 434.64 120.79 433.11 113.99H464.39V97.84H446.54V52.79H376.67V67.92H427.5V75.91H380.07V90.02H427.5V97.84H366.13V113.99H398.09C389.25 119.77 378.54 124.53 368 127.93C365.28 119.43 361.37 109.57 357.12 101.41L343.86 106.85C351.34 96.14 358.65 84.75 364.94 74.38L348.96 67.07C345.05 75.4 339.95 85.26 334.34 94.78C332.81 92.57 330.94 90.19 328.9 87.81C334.85 78.29 341.82 64.86 347.94 53.13L330.77 47.18C328.05 55.85 323.29 67.41 318.53 76.76C317.17 75.4 315.81 74.04 314.45 72.85L304.76 85.94C311.73 93.25 320.06 102.77 324.48 110.59C322.27 113.99 319.89 117.39 317.68 120.45C312.75 120.62 308.33 120.96 304.25 121.13L306.29 138.64L328.73 136.94V205.79H345.73V135.58L354.4 134.9C355.42 138.47 356.1 141.7 356.61 144.59L370.72 138.47C370.21 135.75 369.53 132.69 368.51 129.29C371.57 132.69 375.82 138.3 377.52 141.36C382.96 139.15 388.57 136.6 394.18 133.54C395.37 134.73 396.73 135.92 397.92 137.28C388.74 144.08 375.48 150.88 365.11 154.28C368.68 157.51 372.93 163.63 375.31 167.37C385 162.95 396.9 155.64 406.08 148.33C406.93 150.03 407.78 151.73 408.46 153.43C397.24 166.01 376.5 179.1 358.99 184.88C362.56 188.28 367.15 194.23 369.7 198.48C383.81 192.19 400.13 181.48 412.37 170.26C412.71 177.91 411.01 183.86 408.46 186.41C406.76 189.3 404.04 189.81 400.81 189.81C397.24 189.81 394.35 189.64 390.27 188.96C393.5 194.23 394.18 200.86 394.35 205.62C397.75 205.79 401.15 205.96 404.55 205.96C411.18 205.62 415.6 204.43 420.36 200.18C433.28 189.81 437.02 151.05 407.27 125.38C411.01 122.66 414.58 119.94 417.81 117.05C424.1 149.35 434.64 177.91 453.34 194.06C456.06 189.13 462.01 182.16 466.26 178.93C457.08 171.96 449.77 161.25 444.16 148.67C450.28 144.59 457.42 139.15 464.9 133.88L452.32 119.6Z" fill="white"/>
</g>
<defs>
<filter id="filter0_di" x="15" y="25" width="245" height="245" filterUnits="userSpaceOnUse" color-interpolation-filters="sRGB">
<feFlood flood-opacity="0" result="BackgroundImageFix"/>
<feColorMatrix in="SourceAlpha" type="matrix" values="0 0 0 0 0 0 0 0 0 0 0 0 0 0 0 0 0 0 127 0"/>
<feOffset dy="4"/>
<feGaussianBlur stdDeviation="5"/>
<feColorMatrix type="matrix" values="0 0 0 0 0 0 0 0 0 0 0 0 0 0 0 0 0 0 0.25 0"/>
<feBlend mode="normal" in2="BackgroundImageFix" result="effect1_dropShadow"/>
<feBlend mode="normal" in="SourceGraphic" in2="effect1_dropShadow" result="shape"/>
<feColorMatrix in="SourceAlpha" type="matrix" values="0 0 0 0 0 0 0 0 0 0 0 0 0 0 0 0 0 0 127 0" result="hardAlpha"/>
<feOffset/>
<feGaussianBlur stdDeviation="75"/>
<feComposite in2="hardAlpha" operator="arithmetic" k2="-1" k3="1"/>
<feColorMatrix type="matrix" values="0 0 0 0 0 0 0 0 0 0 0 0 0 0 0 0 0 0 0.15 0"/>
<feBlend mode="normal" in2="shape" result="effect2_innerShadow"/>
</filter>
<filter id="filter1_di" x="250" y="259.491" width="255" height="255" filterUnits="userSpaceOnUse" color-interpolation-filters="sRGB">
<feFlood flood-opacity="0" result="BackgroundImageFix"/>
<feColorMatrix in="SourceAlpha" type="matrix" values="0 0 0 0 0 0 0 0 0 0 0 0 0 0 0 0 0 0 127 0"/>
<feOffset dy="4"/>
<feGaussianBlur stdDeviation="5"/>
<feColorMatrix type="matrix" values="0 0 0 0 0 0 0 0 0 0 0 0 0 0 0 0 0 0 0.25 0"/>
<feBlend mode="normal" in2="BackgroundImageFix" result="effect1_dropShadow"/>
<feBlend mode="normal" in="SourceGraphic" in2="effect1_dropShadow" result="shape"/>
<feColorMatrix in="SourceAlpha" type="matrix" values="0 0 0 0 0 0 0 0 0 0 0 0 0 0 0 0 0 0 127 0" result="hardAlpha"/>
<feOffset/>
<feGaussianBlur stdDeviation="75"/>
<feComposite in2="hardAlpha" operator="arithmetic" k2="-1" k3="1"/>
<feColorMatrix type="matrix" values="0 0 0 0 0 0 0 0 0 0 0 0 0 0 0 0 0 0 0.15 0"/>
<feBlend mode="normal" in2="shape" result="effect2_innerShadow"/>
</filter>
<filter id="filter2_di" x="0" y="259" width="260" height="260" filterUnits="userSpaceOnUse" color-interpolation-filters="sRGB">
<feFlood flood-opacity="0" result="BackgroundImageFix"/>
<feColorMatrix in="SourceAlpha" type="matrix" values="0 0 0 0 0 0 0 0 0 0 0 0 0 0 0 0 0 0 127 0"/>
<feOffset dy="4"/>
<feGaussianBlur stdDeviation="5"/>
<feColorMatrix type="matrix" values="0 0 0 0 0 0 0 0 0 0 0 0 0 0 0 0 0 0 0.25 0"/>
<feBlend mode="normal" in2="BackgroundImageFix" result="effect1_dropShadow"/>
<feBlend mode="normal" in="SourceGraphic" in2="effect1_dropShadow" result="shape"/>
<feColorMatrix in="SourceAlpha" type="matrix" values="0 0 0 0 0 0 0 0 0 0 0 0 0 0 0 0 0 0 127 0" result="hardAlpha"/>
<feOffset/>
<feGaussianBlur stdDeviation="75"/>
<feComposite in2="hardAlpha" operator="arithmetic" k2="-1" k3="1"/>
<feColorMatrix type="matrix" values="0 0 0 0 0 0 0 0 0 0 0 0 0 0 0 0 0 0 0.15 0"/>
<feBlend mode="normal" in2="shape" result="effect2_innerShadow"/>
</filter>
<filter id="filter3_d" x="64.523" y="309.16" width="132.12" height="156.2" filterUnits="userSpaceOnUse" color-interpolation-filters="sRGB">
<feFlood flood-opacity="0" result="BackgroundImageFix"/>
<feColorMatrix in="SourceAlpha" type="matrix" values="0 0 0 0 0 0 0 0 0 0 0 0 0 0 0 0 0 0 127 0"/>
<feOffset/>
<feGaussianBlur stdDeviation="3"/>
<feColorMatrix type="matrix" values="0 0 0 0 0.208333 0 0 0 0 0.208333 0 0 0 0 0.208333 0 0 0 0.8 0"/>
<feBlend mode="normal" in2="BackgroundImageFix" result="effect1_dropShadow"/>
<feBlend mode="normal" in="SourceGraphic" in2="effect1_dropShadow" result="shape"/>
</filter>
<filter id="filter4_di" x="250" y="0" width="270" height="270" filterUnits="userSpaceOnUse" color-interpolation-filters="sRGB">
<feFlood flood-opacity="0" result="BackgroundImageFix"/>
<feColorMatrix in="SourceAlpha" type="matrix" values="0 0 0 0 0 0 0 0 0 0 0 0 0 0 0 0 0 0 127 0"/>
<feOffset dy="4"/>
<feGaussianBlur stdDeviation="5"/>
<feColorMatrix type="matrix" values="0 0 0 0 0 0 0 0 0 0 0 0 0 0 0 0 0 0 0.25 0"/>
<feBlend mode="normal" in2="BackgroundImageFix" result="effect1_dropShadow"/>
<feBlend mode="normal" in="SourceGraphic" in2="effect1_dropShadow" result="shape"/>
<feColorMatrix in="SourceAlpha" type="matrix" values="0 0 0 0 0 0 0 0 0 0 0 0 0 0 0 0 0 0 127 0" result="hardAlpha"/>
<feOffset/>
<feGaussianBlur stdDeviation="75"/>
<feComposite in2="hardAlpha" operator="arithmetic" k2="-1" k3="1"/>
<feColorMatrix type="matrix" values="0 0 0 0 0 0 0 0 0 0 0 0 0 0 0 0 0 0 0.15 0"/>
<feBlend mode="normal" in2="shape" result="effect2_innerShadow"/>
</filter>
<filter id="filter5_d" x="296.72" y="41.18" width="175.54" height="170.78" filterUnits="userSpaceOnUse" color-interpolation-filters="sRGB">
<feFlood flood-opacity="0" result="BackgroundImageFix"/>
<feColorMatrix in="SourceAlpha" type="matrix" values="0 0 0 0 0 0 0 0 0 0 0 0 0 0 0 0 0 0 127 0"/>
<feOffset/>
<feGaussianBlur stdDeviation="3"/>
<feColorMatrix type="matrix" values="0 0 0 0 0.208333 0 0 0 0 0.208333 0 0 0 0 0.208333 0 0 0 0.8 0"/>
<feBlend mode="normal" in2="BackgroundImageFix" result="effect1_dropShadow"/>
<feBlend mode="normal" in="SourceGraphic" in2="effect1_dropShadow" result="shape"/>
</filter>
</defs>
</svg>
