<svg width="850" height="850" viewBox="0 0 850 850" fill="none" xmlns="http://www.w3.org/2000/svg">
<g filter="url(#filter0_d)">
<path d="M788.51 570.358C787.555 566.466 787.805 562.383 789.143 558.606C803.944 516.825 812 471.853 812 425C812 204.086 632.914 25 412 25C191.086 25 12 204.086 12 425C12 645.914 191.086 825 412 825C494.977 825 572.053 799.734 635.954 756.477C639.819 753.86 644.444 752.579 649.096 752.951L837 768L788.51 570.358Z" fill="url(#paint0_linear)"/>
<path d="M789.143 558.606C787.805 562.383 787.555 566.466 788.51 570.358L837 768L649.096 752.951C644.444 752.579 639.819 753.86 635.954 756.477C572.053 799.734 494.977 825 412 825C359.629 825 309.609 814.935 263.768 796.635L437.074 478.584C520.267 325.908 482.134 138.258 352.407 29.4089C371.85 26.5049 391.749 25 412 25C632.914 25 812 204.086 812 425C812 471.853 803.944 516.825 789.143 558.606Z" fill="url(#paint1_linear)"/>
<path d="M412 25C632.914 25 812 204.086 812 425C812 471.853 803.944 516.825 789.143 558.606C787.805 562.383 787.555 566.466 788.51 570.358L837 768L649.096 752.951C644.444 752.579 639.819 753.86 635.954 756.477C572.053 799.734 494.977 825 412 825M412 25C191.086 25 12 204.086 12 425C12 645.914 191.086 825 412 825M412 25C391.749 25 371.85 26.5049 352.407 29.4089C482.134 138.258 520.267 325.908 437.074 478.584L263.768 796.635C309.609 814.935 359.629 825 412 825" stroke="#47A9DC"/>
</g>
<path d="M263.768 796.635C116.24 737.739 12 593.543 12 425C12 224.337 159.758 58.1847 352.407 29.4089C482.134 138.258 520.267 325.908 437.074 478.584L263.768 796.635Z" fill="white" fill-opacity="0.2"/>
<g filter="url(#filter1_d)">
<path d="M336.64 211.83L327.71 266.35C383.64 275.75 471.53 286.09 520.88 289.85L528.4 234.86C479.52 231.57 389.28 221.7 336.64 211.83ZM544.85 361.29L510.54 322.28C505.37 324.16 492.68 326.51 483.75 327.45C444.74 332.62 338.05 337.32 315.96 337.32C298.57 337.79 281.65 336.85 270.84 335.91L276.48 400.77C286.35 399.36 300.45 397.01 316.9 395.6C343.69 393.25 400.09 388.08 432.99 387.14C390.22 432.26 293.87 528.14 269.9 552.58C257.21 564.8 245.93 574.67 237.47 581.72L292.93 620.73C325.36 579.37 360.61 540.83 376.59 524.38C387.87 513.1 397.74 505.58 407.61 505.58C417.01 505.58 427.35 511.69 432.52 528.14C435.81 539.89 441.45 561.98 446.15 576.08C457.9 606.63 481.87 616.5 526.52 616.5C550.96 616.5 599.37 613.21 618.64 609.45L622.4 547.88C598.9 552.58 566.47 556.34 530.28 556.34C511.95 556.34 501.61 548.82 497.38 534.25C493.15 522.03 487.98 504.17 483.75 491.48C477.64 474.09 469.18 463.75 455.55 459.52C450.38 457.64 441.92 455.76 437.69 456.23C448.97 444.01 492.68 403.59 514.3 385.26C522.76 378.21 532.63 369.75 544.85 361.29Z" fill="white"/>
</g>
<defs>
<filter id="filter0_d" x="6.5" y="22.5" width="832.151" height="807" filterUnits="userSpaceOnUse" color-interpolation-filters="sRGB">
<feFlood flood-opacity="0" result="BackgroundImageFix"/>
<feColorMatrix in="SourceAlpha" type="matrix" values="0 0 0 0 0 0 0 0 0 0 0 0 0 0 0 0 0 0 127 0"/>
<feOffset dx="-2" dy="1"/>
<feGaussianBlur stdDeviation="1.5"/>
<feColorMatrix type="matrix" values="0 0 0 0 0 0 0 0 0 0 0 0 0 0 0 0 0 0 0.1 0"/>
<feBlend mode="normal" in2="BackgroundImageFix" result="effect1_dropShadow"/>
<feBlend mode="normal" in="SourceGraphic" in2="effect1_dropShadow" result="shape"/>
</filter>
<filter id="filter1_d" x="234.47" y="208.83" width="390.93" height="414.9" filterUnits="userSpaceOnUse" color-interpolation-filters="sRGB">
<feFlood flood-opacity="0" result="BackgroundImageFix"/>
<feColorMatrix in="SourceAlpha" type="matrix" values="0 0 0 0 0 0 0 0 0 0 0 0 0 0 0 0 0 0 127 0"/>
<feOffset/>
<feGaussianBlur stdDeviation="1.5"/>
<feColorMatrix type="matrix" values="0 0 0 0 0.208333 0 0 0 0 0.208333 0 0 0 0 0.208333 0 0 0 0.6 0"/>
<feBlend mode="normal" in2="BackgroundImageFix" result="effect1_dropShadow"/>
<feBlend mode="normal" in="SourceGraphic" in2="effect1_dropShadow" result="shape"/>
</filter>
<linearGradient id="paint0_linear" x1="132" y1="135" x2="717.5" y2="658" gradientUnits="userSpaceOnUse">
<stop stop-color="#1AA1CB"/>
<stop offset="1" stop-color="#03819C"/>
</linearGradient>
<linearGradient id="paint1_linear" x1="132" y1="135" x2="717.5" y2="658" gradientUnits="userSpaceOnUse">
<stop stop-color="#1AA1CB"/>
<stop offset="1" stop-color="#03819C"/>
</linearGradient>
</defs>
</svg>
